<?xml version="1.0" encoding="UTF-8"?>
<svg id="Male" data-name="Male" xmlns="http://www.w3.org/2000/svg" viewBox="0 0 109.64 314.51">
  <defs>
    <style>
      .cls-1 {
        opacity: .5;
      }
    </style>
  </defs>
  <g id="Male">
    <path class="cls-1" d="m17.67,121.38c.18,3.13-.2,6.23-.79,9.29-.4,2.04-1.06,4.01-1.66,6-.89,2.94-1.83,5.86-2.64,8.82-.49,1.81-1.11,3.58-1.65,5.37-.84,2.79-1.65,5.58-2.49,8.37-.14.46-.03.85.22,1.24.46.71,1.02,1.33,1.63,1.91,1.29,1.25,2.18,2.7,2.52,4.51.35,1.88.85,3.73,1.27,5.6.19.84.64,1.54,1.04,2.28.25.46.54.89.77,1.35.4.78.05,1.34-.84,1.28-.64-.04-1.22-.28-1.75-.69-1.21-.92-2.07-2.09-2.67-3.47-.13-.29-.24-.6-.42-.86-.24-.33-.57-.63-1-.54-.46.09-.78.43-.86.9-.12.71-.29,1.4-.32,2.13-.06,1.52.05,3.04.32,4.53.18.99.66,1.88,1.08,2.78.39.83.82,1.64,1.22,2.47.12.25.22.52.26.79.08.64-.3,1.02-.93.87-.44-.1-.83-.17-1.28-.06-.52.12-.89-.28-1.28-.55-.8-.57-1.41-1.33-2.37-1.76-.87-.39-1.27-1.42-1.7-2.27-1.32-2.64-2.41-5.38-3.09-8.27-.44-1.87-.26-3.72-.08-5.59.22-2.26.36-4.54.71-6.78.34-2.21.03-4.38-.07-6.57-.1-2.12-.14-4.23-.15-6.35,0-2.28-.25-4.54-.25-6.82,0-3.24.25-6.46.63-9.67,0-.04.01-.08.01-.12-.1-2.53.36-5.01.74-7.49.21-1.35.57-2.66.94-3.96.3-1.07.6-2.15,1.08-3.17.55-1.16.47-2.41.35-3.65-.21-2.23-.17-4.46-.01-6.69.14-1.95.3-3.9.51-5.84.17-1.56.61-3.05,1.05-4.54.85-2.89,2.3-5.51,3.55-8.22.76-1.64,1.38-3.31,1.18-5.18-.08-.75.02-1.52-.02-2.28-.15-2.82.2-5.6.82-8.32,1.29-5.7,4.12-10.44,9.22-13.57,1.12-.69,2.32-1.23,3.54-1.73,3.48-1.41,7.1-2.36,10.62-3.64,2.73-.99,5.42-2.09,7.79-3.86.98-.73,1.54-1.63,1.71-2.76.19-1.22.21-2.46.31-3.69.04-.46-.1-.84-.4-1.21-1.2-1.52-1.68-3.32-2.01-5.19-.11-.63-.23-1.25-.35-1.88-.14-.74-.36-1.47-.31-2.24.03-.61-.16-.72-.8-.72-1.36,0-1.57-.11-1.7-1.4-.15-1.54-.86-2.9-1.2-4.38-.19-.82-.26-1.65-.38-2.48-.07-.48.03-.96.2-1.41.28-.74.64-.96,1.44-.77.51.12.71-.07.67-.51-.07-.91-.19-1.82-.31-2.73-.37-2.86-.2-5.69.77-8.39,1.13-3.16,3.3-5.53,6.21-7.18,3.24-1.84,6.75-2.79,10.45-2.26,4.16.6,7.88,2.27,10.67,5.59.18.21.32.46.45.7.44.8.86,1.62,1.32,2.42.48.84.77,1.73.95,2.69.48,2.55.43,5.08.04,7.62-.08.55-.07,1.12-.06,1.67,0,.38.13.54.6.41.98-.26,1.45.16,1.56,1.2.19,1.92-.24,3.74-.96,5.49-.31.75-.48,1.51-.5,2.32-.02,1-.36,1.32-1.36,1.47-1.02.14-1.07.17-1.24,1.24-.26,1.61-.44,3.23-.86,4.83-.36,1.37-.87,2.65-1.68,3.8-.34.49-.49.98-.45,1.56.08,1.48.19,2.95.52,4.39.14.63.48,1.06.98,1.45,2.04,1.57,4.31,2.71,6.71,3.63,3.53,1.36,7.19,2.34,10.74,3.65,3.71,1.36,7.12,3.2,9.68,6.34,1.57,1.93,2.87,4.02,3.59,6.44.25.84.54,1.66.77,2.51.97,3.59,1.23,7.25,1.04,10.92-.11,2.21.5,4.17,1.38,6.11.66,1.45,1.52,2.8,2.11,4.29,1.19,3.02,2.25,6.09,2.49,9.33.21,2.86.37,5.74.28,8.62-.04,1.16.05,2.33-.17,3.47-.25,1.24.37,2.27.76,3.33,1.21,3.32,1.92,6.74,2.27,10.25.27,2.66.45,5.33.56,8,.32,7.59-.15,15.18-.16,22.77,0,2.07.04,4.15.33,6.22.22,1.58.44,3.16.54,4.75.13,2.07-.2,4.06-.84,6.01-.77,2.31-1.59,4.61-2.89,6.69-.55.87-1,1.8-2.17,2.08-.41.1-.71.61-1.07.92-.63.55-1.22,1.18-2.2.87-.14-.04-.31.03-.47.06-1.01.16-1.3-.12-1.17-1.12.05-.37.23-.67.4-.99.99-1.83,1.92-3.68,2.3-5.75.29-1.58.26-3.18.02-4.76-.11-.73-.22-1.67-1.14-1.76-.86-.08-1.14.8-1.39,1.44-.52,1.36-1.48,2.35-2.51,3.3-.52.48-1.14.74-1.83.82-.8.09-1.18-.42-.96-1.2.17-.63.6-1.12.91-1.68.67-1.2,1.07-2.48,1.35-3.82.33-1.6.75-3.18,1.13-4.77.31-1.29,1.04-2.31,1.95-3.24.53-.54,1.06-1.09,1.54-1.67.52-.64.74-1.34.46-2.22-.71-2.24-1.33-4.51-1.99-6.77-.59-2.03-1.16-4.06-1.77-6.08-.57-1.91-1.19-3.8-1.76-5.71-1.1-3.71-2.32-7.38-3.08-11.18-.23-1.16-.31-2.38-.3-3.57.03-2.88-.27-5.74-.23-8.62,0-.55-.2-1.01-.54-1.42-1.92-2.35-3.15-5.06-4.19-7.88-.86-2.33-1.49-4.71-2.04-7.12-.02-.08-.04-.16-.05-.23-.04-.18-.16-.3-.32-.31-.18,0-.27.15-.29.32-.1,1.12-.55,2.18-.66,3.28-.15,1.52-.6,2.98-.92,4.45-.77,3.54-1.65,7.07-2.58,10.58-.66,2.5-1.31,5.02-1.57,7.61-.14,1.37-.03,2.67.47,3.99,1.14,3.01,1.83,6.11,1.41,9.37-.09.73.14,1.44.34,2.11.79,2.64,1.65,5.25,2.48,7.87,1.2,3.77,2.22,7.57,2.86,11.48.55,3.42,1.12,6.85,1.64,10.28.21,1.42.15,2.87.25,4.3.27,3.86.5,7.73.5,11.61,0,2.6-.32,5.18-.48,7.77-.2,3.35-.83,6.65-.93,10.01-.04,1.27-.2,2.55-.33,3.81-.23,2.27.16,4.46.47,6.67.32,2.3.72,4.59.56,6.91-.16,2.45.48,4.74,1.07,7.06.6,2.36,1.24,4.71,1.74,7.09.3,1.4.39,2.85.52,4.28.4,4.22.55,8.45.51,12.68-.03,3.24-.09,6.47-.26,9.7-.11,1.99-.34,3.97-.52,5.96-.56,6.28-1.21,12.56-.84,18.88.13,2.25.82,4.26,2.53,5.89,2.43,2.31,4.75,4.74,7.12,7.11,1.55,1.55,3.18,3.02,5,4.26.66.45,1.39.78,2.04,1.24.95.67,1.81,1.43,2.06,2.67.11.53.03.92-.37,1.29-.55.51-.99,1.15-1.85,1.2-.21.01-.43.21-.6.37-.56.52-1.19.79-1.96.67-.44-.07-.75.07-1,.47-.79,1.29-1.55,1.56-2.98,1.11-1.05-.33-1.98-.87-2.76-1.63-.92-.89-2-1.41-3.2-1.78-1.63-.5-3.03-1.41-4.09-2.78-.24-.32-.5-.62-.71-.96-1.26-2.07-3.14-3.34-5.36-4.2-1.08-.42-2.12-.92-3.16-1.42-1.71-.82-2.68-2.18-2.35-4.62.17-1.22.32-2.45.54-3.67.12-.67.1-1.36-.19-2-.31-.7-.28-1.4-.05-2.1.76-2.36.6-4.69,0-7.08-.56-2.28-.9-4.61-1.3-6.93-.39-2.28-.72-4.57-1.1-6.85-.2-1.18-.51-2.34-.8-3.5-.67-2.63-1.41-5.24-2.69-7.65-.45-.84-.96-1.66-1.37-2.52-1.06-2.21-1.64-4.57-1.99-6.99-.42-2.86-.3-5.74-.24-8.61.03-1.27.26-2.54.46-3.8.24-1.58.44-3.16.5-4.75.04-1.14-.19-2.17-.8-3.19-.73-1.22-1.13-2.58-1.39-4.03-.24-1.31-.15-2.72-.84-3.95-.09-.16-.11-.4-.08-.59.29-2.04-.68-3.81-1.24-5.65-1.08-3.55-2.47-6.99-3.72-10.49-.7-1.95-1.36-3.91-1.96-5.89-.63-2.1-1.2-4.22-1.73-6.35-.25-1.01-.54-2-.81-3-.66-2.51-1.12-5.07-1.89-7.54-.19-.61-.3-1.24-.46-1.86-.06-.23-.13-.46-.23-.68-.1-.22-.27-.42-.55-.35-.21.06-.31.25-.33.46-.07.85-.41,1.62-.61,2.44-.8,3.25-1.57,6.51-2.39,9.76-.86,3.4-1.8,6.79-2.99,10.1-1.29,3.61-2.54,7.23-3.86,10.82-1.28,3.5-2.17,7.08-2.45,10.82-.14,1.83-.6,3.69-1.59,5.23-1.36,2.11-1.37,4.28-.92,6.56.26,1.3.34,2.61.36,3.93,0,.68.21,1.35.25,2,.12,1.89.16,3.79.01,5.69-.02.31-.19.61-.14.94.21,1.28-.05,2.54-.26,3.79-.45,2.59-1.54,4.94-2.81,7.21-1.3,2.31-2.09,4.82-2.76,7.37-.52,1.97-.93,3.97-1.25,5.97-.5,3.19-1.12,6.36-1.65,9.54-.24,1.42-.53,2.82-.78,4.24-.32,1.83-.08,3.58.22,5.35.13.76.16,1.49-.03,2.25-.24,1.02-.14,2.07.01,3.1.13.87.28,1.73.42,2.6.33,2.06-.54,3.55-2.16,4.39-1.02.53-2.09.99-3.14,1.47-.58.26-1.18.49-1.76.75-1.31.57-2.38,1.43-3.2,2.61-.36.52-.73,1.05-1.11,1.56-1.08,1.44-2.46,2.53-4.19,3.05-1.37.41-2.58,1.03-3.59,2.04-.67.66-1.51,1.07-2.37,1.36-1.44.49-2.59.29-3.16-1.01-.21-.46-.54-.67-1.05-.53-.27.07-.58.09-.82-.06-1.28-.75-2.73-1.24-3.76-2.41-.27-.31-.34-.6-.22-.98.33-1.12.99-2.04,1.98-2.61,3.36-1.92,6.19-4.48,8.9-7.21,1.8-1.82,3.59-3.64,5.4-5.44,1.22-1.21,2.04-2.59,2.35-4.34.47-2.65.63-5.28.44-7.97-.18-2.71-.52-5.4-.61-8.12-.06-1.99-.37-3.97-.57-5.96-.02-.24-.08-.48-.08-.71.02-2.2-.29-4.38-.39-6.57-.14-3.15-.47-6.3-.3-9.46.16-2.91.26-5.81.57-8.72.22-2.06.48-4.11.75-6.17.19-1.43.64-2.8.92-4.21.42-2.07,1.03-4.09,1.58-6.13.17-.62.26-1.25.23-1.89-.11-2.36.1-4.71.24-7.06.04-.63.17-1.27.31-1.89.67-3.05.46-6.12.21-9.18-.21-2.62-.46-5.25-.8-7.86-.36-2.74-.41-5.49-.54-8.24-.21-4.28.14-8.54.14-12.81,0-1.87.39-3.73.5-5.6.13-2.28.59-4.51.95-6.75.52-3.18.98-6.38,1.88-9.5.91-3.18,1.87-6.35,2.91-9.49.53-1.59.94-3.21,1.42-4.82.15-.51.18-1.02.1-1.54-.13-.84-.02-1.67-.03-2.5-.02-2.59.88-4.93,1.73-7.29.31-.87.36-1.7.21-2.58-.36-2.08-.59-4.18-1.14-6.23-.36-1.35-.71-2.7-1.06-4.05-.65-2.55-1.33-5.09-1.83-7.67-.23-1.17-.6-2.31-.81-3.49-.25-1.41-.57-2.81-.81-4.23-.05-.27-.11-.55-.2-.81-.03-.1-.14-.22-.24-.24-.19-.05-.28.12-.32.27-.1.34-.2.69-.28,1.04-.69,3.21-1.69,6.32-3.02,9.32-.8,1.8-1.81,3.47-3.06,4.98-.41.49-.57,1-.56,1.63.04,1.4.01,2.8.01,4.2Z"/>
  </g>
</svg>